<?xml version="1.0" encoding="UTF-8" standalone="no"?>
<!-- Created with Inkscape (http://www.inkscape.org/) -->

<svg
   xmlns:svg="http://www.w3.org/2000/svg"
   xmlns="http://www.w3.org/2000/svg"
   version="1.1"
   width="1995"
   height="1737.5"
   viewBox="0 0 1995 1737.5"
   id="svg3336">
  <defs
     id="defs3340" />
  <path
     d="m 1377.9459,1472.0882 c -5.1562,-0.8961 -15.8924,-2.2984 -23.858,-3.116 l -14.483,-1.4868 -8.3511,-6.1322 c -5.2726,-3.8718 -9.9848,-8.6862 -12.7829,-13.0604 -5.5623,-8.6954 -8.6875,-10.298 -15.1366,-7.7623 -2.6199,1.03 -7.0134,2.2702 -9.7634,2.7557 -2.75,0.4856 -8.0358,2.5816 -11.7463,4.6576 -6.489,3.6309 -7.1801,3.7486 -18.125,3.0876 -6.2583,-0.378 -13.7974,-1.0537 -16.7536,-1.5017 -4.1271,-0.6253 -5.9183,-0.3226 -7.7155,1.3037 -1.2873,1.165 -4.6016,2.4215 -7.3652,2.7922 -3.0209,0.4052 -6.1373,1.8583 -7.8149,3.6441 -1.6664,1.7738 -4.2193,2.9701 -6.3382,2.9701 -3.8417,0 -19.9894,-4.1891 -22.5616,-5.8531 -0.8688,-0.562 -9.4547,-1.3688 -19.0797,-1.7928 -9.625,-0.4238 -19.0116,-1.1858 -20.859,-1.6931 -2.2108,-0.6071 -4.7333,-0.2369 -7.3795,1.0833 -5.018,2.5032 -8.4445,2.5335 -13.2881,0.1175 -2.6947,-1.3444 -9.9759,-2.1223 -25.2655,-2.6997 l -21.4799,-0.8108 -3.6765,-4.4604 c -2.3805,-2.8881 -3.6765,-5.8764 -3.6765,-8.4769 0,-2.2091 -0.6759,-4.4341 -1.502,-4.9447 -2.8871,-1.7844 -11.049,-0.339 -18.8046,3.33 -8.8599,4.1915 -15.723,4.7098 -22.8623,1.7268 -3.8645,-1.6147 -5.7333,-1.7198 -10.2687,-0.5777 -3.0495,0.7677 -6.9585,2.3225 -8.6867,3.4549 -2.054,1.3458 -6.8019,2.251 -13.7089,2.6135 -10.48889,0.5505 -10.59472,0.5258 -14.38445,-3.3504 -4.00178,-4.0931 -3.95642,-3.6144 -1.46794,-15.4904 1.02783,-4.9051 -1.39917,-7.176 -7.66959,-7.176 -9.75808,0 -30.64484,11.6688 -30.64484,17.1203 0,0.8963 -0.84375,1.6297 -1.875,1.6297 -1.33435,0 -1.875,-1.3557 -1.875,-4.7018 0,-7.4537 6.4374,-16.0586 16.875,-22.5567 l 8.75,-5.4474 9.375,0.7637 c 14.41623,1.1741 22.67862,2.6309 27.82012,4.9053 10.3734,4.5885 29.0111,3.7296 39.9285,-1.84 2.5768,-1.3145 6.865,-5.3394 9.5295,-8.9441 2.6644,-3.6048 7.1395,-8.6259 9.9446,-11.1582 6.6442,-5.9982 7.726,-8.2142 8.605,-17.6273 0.5767,-6.1754 -0.1,-11.5554 -3.1814,-25.3056 -2.1525,-9.6047 -4.4908,-21.6816 -5.1961,-26.8379 -0.7053,-5.1562 -1.8537,-13.5937 -2.5519,-18.75 -1.6003,-11.8172 -3.8514,-20.4541 -8.6336,-33.125 -2.0759,-5.5 -4.3826,-13.6562 -5.1262,-18.125 -1.2673,-7.6165 -8.6778,-34.711 -11.1959,-40.9352 -0.6254,-1.5457 -2.0099,-6.5743 -3.0768,-11.1747 -1.0669,-4.6003 -3.8919,-12.6878 -6.2778,-17.9721 -4.1955,-9.2921 -4.3385,-10.1156 -4.3515,-25.0753 -0.01,-10.2446 -0.6562,-17.5782 -1.9167,-21.7177 -1.7079,-5.6092 -3.0123,-19.3546 -3.0544,-32.1875 -0.013,-3.7468 -0.4864,-4.6875 -2.3624,-4.6875 -1.2908,0 -3.042,0.8376 -3.8916,1.8612 -0.8496,1.0237 -2.0754,1.5333 -2.7241,1.1324 -2.4953,-1.5422 -7.0225,0.8492 -8.5391,4.5107 -2.1606,5.2162 -4.9982,2.7531 -4.9982,-4.3386 0,-3.5855 -0.75652,-5.9628 -2.35896,-7.413 -2.25003,-2.0363 -2.57296,-1.9154 -6.9946,2.6187 -2.96716,3.0426 -4.85506,4.1912 -5.24523,3.1911 -1.08645,-2.7849 -4.6969,-1.6816 -8.11755,2.4807 -3.90715,4.7543 -4.94603,4.2049 -5.55144,-2.936 -0.24414,-2.8795 -0.70948,-5.5011 -1.03408,-5.8257 -0.3246,-0.3246 -2.8818,0.6043 -5.68267,2.0642 -6.19343,3.2282 -5.82473,3.2248 -6.65213,0.061 -0.59698,-2.2828 -1.02116,-2.41 -3.54132,-1.0612 -1.57472,0.8428 -5.99583,1.6547 -9.82472,1.8043 -5.61182,0.2192 -7.00806,-0.1203 -7.20116,-1.7513 -0.88545,-7.4785 -2.02067,-11.3983 -3.30106,-11.3983 -1.21016,0 -8.56214,8.536 -12.23964,14.2108 -0.47823,0.738 -1.21918,0.9922 -1.64653,0.5648 -0.42735,-0.4274 0.66706,-3.6267 2.43203,-7.1097 3.61354,-7.131 4.2076,-12.6659 1.35944,-12.6659 -1.01727,0 -2.93451,2.1094 -4.26051,4.6875 -1.32601,2.5781 -4.1932,6.375 -6.37154,8.4375 l -3.96061,3.75 3.20607,-5.625 c 3.50758,-6.154 4.28485,-12.5 1.53101,-12.5 -0.93784,0 -2.62416,2.3906 -3.74736,5.3125 -2.46635,6.416 -7.68602,13.1968 -9.0878,11.806 -0.55792,-0.5536 0.56559,-3.8173 2.49669,-7.2527 3.85281,-6.854 3.59136,-10.1966 -0.76419,-9.77 -4.84391,0.4744 -7.26189,-1.2577 -6.42276,-4.6011 0.92334,-3.6789 -2.04991,-4.1014 -5.6798,-0.8072 -5.80253,5.2659 -6.51086,5.6412 -7.94337,4.2087 -1.93712,-1.9371 -5.34773,-1.744 -9.79222,0.5543 -2.07451,1.0728 -4.71846,1.7338 -5.87542,1.4691 -1.59546,-0.3652 -1.12419,-1.0628 1.95101,-2.888 4.06217,-2.4111 5.1363,-4.7253 2.84924,-6.1388 -1.44831,-0.8951 -10.22386,1.2342 -16.00904,3.8844 -5.56032,2.5472 -10.88054,1.8647 -10.94131,-1.4037 -0.0743,-3.9919 -1.69505,-5.7807 -4.09185,-4.516 -1.1614,0.6128 -5.48664,1.9784 -9.61164,3.0346 -4.125,1.0562 -8.48437,2.304 -9.6875,2.7729 -1.54149,0.6007 -2.1875,0.2461 -2.1875,-1.2007 0,-1.2081 2.1866,-3.0346 5.3125,-4.4378 13.20261,-5.9262 14.26684,-10.8034 2.04789,-9.3853 -8.17798,0.9492 -9.98838,-0.7314 -3.29789,-3.0614 6.80869,-2.3712 13.90591,-7.6114 12.37801,-9.1393 -0.95203,-0.952 -3.61157,-0.7425 -9.20227,0.725 -6.51025,1.7089 -13.45536,2.012 -40.36324,1.7618 l -32.5,-0.3023 -13.75,3.9895 c -7.5625,2.1942 -20.78125,4.9079 -29.375,6.0303 -8.59375,1.1225 -19,2.5232 -23.125,3.1128 -4.125,0.5895 -13.6875,1.9557 -21.25,3.0361 -7.5625,1.0803 -19.375,2.8168 -26.25,3.8589 -6.875,1.042 -15.3125,2.1897 -18.75,2.5503 -9.62135,1.0093 -27.09459,4.1686 -45,8.1362 -8.9375,1.9804 -22.7604,4.1444 -30.71756,4.8087 -9.45426,0.7894 -17.6841,2.3019 -23.75,4.3649 -5.10534,1.7364 -17.44223,5.669 -27.41529,8.7392 -9.97307,3.0702 -22.82281,7.5895 -28.55497,10.043 -5.73215,2.4534 -12.11868,4.7597 -14.19228,5.125 -2.07359,0.3654 -6.9426,1.9764 -10.82004,3.58 -3.87742,1.6037 -14.08111,5.2028 -22.67486,7.9979 -8.59375,2.7951 -22.65625,7.9598 -31.25,11.4771 -17.54847,7.1823 -18.56174,7.54 -43.75,15.4449 -9.96875,3.1285 -21.78125,6.2255 -26.25,6.8822 -4.84341,0.7117 -15.63622,4.2982 -26.7223,8.8799 -10.22851,4.2272 -21.19726,8.1905 -24.375,8.8071 -15.86804,3.0794 -16.91561,3.3574 -30.7777,8.1675 -7.5416,2.6169 -14.57061,3.0424 -15.29335,0.9258 -0.30899,-0.9049 2.74353,-3.1163 7.38329,-5.3487 4.35054,-2.0933 9.31631,-4.9217 11.03506,-6.2855 3.04654,-2.4171 3.06463,-2.5256 0.71998,-4.3231 -2.24472,-1.7208 -1.51839,-2.2619 10.89605,-8.1178 13.10358,-6.181 27.98682,-17.021 34.33835,-25.01 4.58576,-5.768 17.98097,-15.8079 25.56695,-19.1628 7.99467,-3.5356 20.37971,-11.6645 24.10367,-15.8204 1.375,-1.5345 9.2362,-7.6498 17.46934,-13.5895 15.92106,-11.4861 31.90566,-25.678 31.90566,-28.3274 0,-0.8801 1.82812,-2.6826 4.0625,-4.0057 4.89394,-2.8979 8.27206,-8.5068 6.30696,-10.4719 -0.94002,-0.9401 -3.48,-0.7801 -8.66224,0.5455 -4.03272,1.0315 -9.86347,2.4361 -12.95722,3.1213 -7.20624,1.596 -61.14524,20.1523 -69.375,23.8666 -3.4375,1.5515 -10.46875,4.2259 -15.625,5.9432 -5.15625,1.7174 -12.75,4.4154 -16.875,5.9957 -9.75375,3.7366 -24.61944,5.251 -26.71845,2.7218 -1.53865,-1.8539 -1.40685,-2.3019 4.83666,-16.4386 1.36133,-3.0823 5.78288,-8.1162 11.52844,-13.125 5.12609,-4.4687 10.88764,-10.1832 12.80344,-12.6987 3.60883,-4.7386 6.02425,-6.1999 18.97896,-11.4827 4.22347,-1.7222 10.23954,-5.0858 13.36901,-7.4746 3.12948,-2.3888 10.08015,-6.7456 15.44595,-9.6818 5.36579,-2.9362 11.2854,-6.5979 13.15469,-8.13696 1.86929,-1.5392 6.36929,-3.7531 10,-4.9198 3.63071,-1.1668 8.59721,-3.4007 11.03665,-4.9643 2.43945,-1.5635 8.47611,-4.3004 13.41483,-6.0819 4.9387,-1.7815 15.3178,-6.1365 23.06464,-9.6778 7.74684,-3.5414 18.86643,-8.3502 24.71018,-10.6863 13.74074,-5.4929 22.94151,-10.088 30.22607,-15.0955 5.9365,-4.08089 24.08149,-12.61019 32.50833,-15.28099 2.53516,-0.8035 5.91915,-2.4912 7.51996,-3.7504 1.60083,-1.2592 10.21409,-7.1358 19.14062,-13.0592 8.92651,-5.9234 18.48002,-12.38971 21.23002,-14.36959 6.8385,-4.92342 18.03915,-10.93796 22.11768,-11.8768 3.80866,-0.8767 17.27607,-9.78985 26.63232,-17.62607 8.66455,-7.25689 18.98484,-13.27464 34.375,-20.044 7.21875,-3.17518 14.39764,-6.39374 15.9531,-7.15236 4.33165,-2.11264 12.53186,-13.77988 16.44726,-23.40113 4.99234,-12.2676 14.34731,-23.43876 26.69595,-31.87875 5.65328,-3.86388 13.09119,-9.28994 16.52869,-12.05793 3.4375,-2.76798 12.4375,-8.09221 20,-11.83161 8.04529,-3.97811 19.78745,-11.33091 28.30199,-17.72232 8.00358,-6.00789 18.12858,-13.07904 22.5,-15.71366 20.86445,-12.57489 53.48901,-32.76472 58.15236,-35.98779 2.86239,-1.97834 5.60665,-3.59699 6.09836,-3.59699 0.49171,0 4.2283,-2.27596 8.30355,-5.0577 4.07525,-2.78174 8.72939,-5.55951 10.34253,-6.17282 7.19982,-2.73738 56.17031,-38.51909 73.70308,-53.85332 2.80398,-2.45236 9.87938,-7.87848 15.72313,-12.05806 11.50486,-8.22852 22.23225,-18.19771 31.49566,-29.2696 3.25928,-3.89559 10.66969,-10.24303 16.65939,-14.26975 5.93381,-3.98912 14.26076,-10.9961 18.50435,-15.57104 4.24352,-4.57493 11.65312,-10.91077 16.46562,-14.07963 13.9961,-9.21592 31.7494,-25.0799 41.875,-37.41848 5.1562,-6.2832 14.7187,-16.16764 21.25,-21.96541 6.5312,-5.79779 15.25,-13.70459 19.375,-17.57069 18.7239,-17.54871 34.5046,-30.25502 45.625,-36.73625 7.528,-4.38749 31.2957,-24.11087 33.9729,-28.19205 5.5734,-8.4961 18.3872,-62.52943 21.7073,-91.5352 0.4328,-3.78125 1.2899,-8.5625 1.9047,-10.625 0.6147,-2.0625 1.6996,-7.9044 2.4109,-12.982 0.7647,-5.45884 3.1243,-13.3775 5.7733,-19.375 2.464,-5.57865 8.8802,-20.31565 14.2582,-32.7489 9.5764,-22.1391 11.0671,-25.11015 19.9727,-39.80534 8.0022,-13.20455 17.3337,-22.59005 34.375,-34.5741 7.5515,-5.31047 30.1115,-17.48706 38.75,-20.91497 3.4375,-1.36408 10.75,-4.57608 16.25,-7.13778 16.7939,-7.822 20.9462,-9.5195 29.0889,-11.89177 4.3114,-1.25606 12.3088,-4.00758 17.7721,-6.11445 9.644,-3.7191 10.5262,-3.82956 30.2861,-3.79209 29.7473,0.0564 42.1494,2.13228 68.4779,11.46174 37.1589,13.16721 61.4031,25.45787 65.993,33.4552 2.305,4.01631 6.2359,6.29446 10.8609,6.29446 2.7926,0 10.3422,2.5704 33.1461,11.28518 5.1563,1.97052 15,5.34693 21.875,7.50312 14.2423,4.46675 38.1593,15.73816 45.978,21.66814 2.8996,2.19912 7.3989,5.30279 9.9985,6.89702 6.1263,3.75705 14.4374,14.35346 11.6969,14.91308 -1.0545,0.21535 -3.0085,-0.19244 -4.3423,-0.9062 -4.1231,-2.20664 -32.5285,-5.45515 -48.9561,-5.59875 -13.1162,-0.11463 -15.625,0.16446 -15.625,1.73841 0,1.52656 2.9036,2.01471 15.625,2.62684 22.6024,1.08757 39.0976,3.47663 43.8159,6.346 3.9816,2.42136 3.9914,2.4516 1.3702,4.2875 -1.4518,1.01691 -8.1345,3.46606 -14.8503,5.44257 -6.7159,1.9765 -19.5233,6.12439 -28.4608,9.21752 -8.9375,3.09312 -21.7926,6.56424 -28.567,7.71361 -16.9576,2.87707 -24.7484,5.81815 -32.085,12.11249 -6.552,5.62109 -10.2925,11.42121 -11.8041,18.30361 -0.4924,2.24165 -2.2523,7.4155 -3.9109,11.49744 -6.7846,16.69712 -8.9661,61.94762 -3.7039,76.82742 3.1414,8.88229 10.2425,22.78255 15.0053,29.37238 4.823,6.67292 11.7407,20.91211 16.7862,34.55176 1.999,5.40422 5.1017,13.13022 6.8945,17.1689 1.7929,4.03867 3.2599,8.27691 3.2599,9.41832 0,1.1414 1.184,5.43079 2.6313,9.53196 2.1197,6.00728 2.4717,9.03059 1.811,15.55395 -0.4943,4.87913 -1.6643,9.0306 -2.9438,10.44563 -1.8692,2.0671 -2.1235,5.81291 -2.1235,31.27772 l 0,28.92938 -4.198,11.875 c -3.5261,9.97472 -4.3586,14.47537 -5.202,28.125 -0.7231,11.70394 -1.9442,19.39727 -4.3645,27.5 -3.9729,13.30004 -4.6761,16.44116 -8.1819,36.54555 -1.752,10.04719 -3.5008,16.3555 -5.097,18.38462 -1.3365,1.69899 -3.5161,6.24622 -4.8437,10.10494 -1.3275,3.85873 -4.4023,10.28933 -6.8328,14.29021 -2.4303,4.00089 -5.2825,9.72218 -6.3381,12.71395 -2.4402,6.91645 -8.1689,17.10748 -15.0585,26.78844 -2.9661,4.16774 -6.807,11.49814 -8.5355,16.28978 -5.8169,16.12575 -14.4917,34.69291 -17.7191,37.92475 -1.7618,1.76427 -6.9635,10.52026 -11.5593,19.45776 -4.5958,8.9375 -10.6571,19.625 -13.4696,23.75 -2.8125,4.125 -6.0694,9.35959 -7.2376,11.63242 -1.1681,2.27284 -5.12,7.33534 -8.7819,11.25 -12.4684,13.32914 -20.0704,22.35975 -28.1967,33.49562 -4.4639,6.11708 -12.9597,16.18446 -18.8793,22.37196 -5.9196,6.1875 -12.5089,13.6918 -14.6427,16.6763 -2.134,2.9845 -8.4714,9.40049 -14.0832,14.25779 -5.6117,4.8573 -12.8076,12.3084 -15.9908,16.558 -17.1764,22.9305 -25.2751,32.92916 -29.0674,35.88656 -2.3212,1.8102 -8.5936,7.5647 -13.9386,12.7878 -5.345,5.2231 -14.0323,12.3005 -19.3051,15.7275 l -9.587,6.231 -10.7856,0 c -10.1783,0 -11.4138,0.3056 -21.9448,5.428 -6.1376,2.9853 -13.283,6.1274 -15.8786,6.9824 -2.5955,0.8549 -6.2572,2.8486 -8.137,4.4303 -1.8797,1.5817 -5.4025,3.4239 -7.8283,4.0937 -2.4258,0.6698 -8.3726,4.1086 -13.215,7.6417 -4.8424,3.5332 -9.4991,6.4239 -10.3483,6.4239 -0.8491,0 -3.3887,1.4071 -5.6435,3.1269 -2.2547,1.7198 -6.7879,3.6291 -10.0737,4.2429 -7.3579,1.3747 -8.7959,3.2477 -8.2572,10.7552 0.099,1.375 -0.8786,8.8038 -2.1717,16.5085 -1.7623,10.5006 -2.0619,15.5088 -1.1965,20 0.635,3.2953 1.6598,20.054 2.2774,37.2415 0.6175,17.1875 1.4837,37.327 1.9247,44.7545 0.6607,11.1269 0.4241,14.4936 -1.3439,19.1231 -1.7988,4.7102 -1.8947,6.2248 -0.5932,9.367 0.854,2.0615 3.0407,4.5178 4.8594,5.4583 4.2701,2.2082 20.5024,19.2082 29.0516,30.4257 9.9,12.9902 25.4343,30.8444 36.0827,41.4718 5.18,5.1699 11.9018,12.7746 14.9373,16.8996 8.0711,10.968 27.7402,34.2936 33.3199,39.514 5.635,5.2724 24.7067,20.1544 33.2621,25.9553 5.5492,3.7625 5.9375,4.3798 5.9375,9.4377 0,6.5033 1.5013,7.9576 9.3206,9.0294 3.5725,0.4896 10.8668,3.4537 18.2859,7.4306 9.9134,5.3141 14.5615,6.9991 23.6185,8.5621 6.2019,1.0703 13.104,1.9474 15.338,1.9492 5.4114,0 19.5129,-3.2453 30.312,-6.985 4.8125,-1.6667 10.9604,-3.0277 13.6619,-3.0243 5.6775,0.013 19.8597,4.4219 24.5393,7.639 5.5593,3.8219 9.412,4.1373 14.2227,1.1641 6.9371,-4.2873 24.093,-4.9807 34.461,-1.3927 10.0573,3.4806 12.3143,4.6542 16.5526,8.6072 5.472,5.1038 4.5861,6.7245 -3.125,5.7172 -3.6094,-0.4717 -9.6036,-1.8973 -13.3208,-3.1682 -8.2068,-2.806 -11.5146,-2.8743 -19.8138,-0.4097 -7.0849,2.104 -8.4203,4.1621 -7.1373,11.0011 0.7251,3.8654 0.4045,4.5053 -3.4529,6.8893 -2.3387,1.4453 -5.2867,3.7712 -6.5512,5.1683 -2.9185,3.225 -7.5359,3.2358 -19.7136,0.046 -5.2378,-1.3719 -10.4062,-2.1555 -11.4855,-1.7414 -2.3294,0.894 -2.5393,3.1588 -0.4833,5.2148 2.3018,2.3017 0.2233,3.2608 -3.6265,1.6736 -4.5607,-1.8803 -24.4499,-5.1051 -31.6026,-5.124 -7.5083,-0.02 -14.1236,1.931 -16.8814,4.9782 -2.661,2.9404 -8.7114,3.0952 -23.1186,0.5914 z m -195.9375,-37.6627 c 1.2031,-0.3323 2.1875,-1.6913 2.1875,-3.02 0,-2.0842 -0.9105,-2.4157 -6.6361,-2.4157 -7.4767,0 -11.7117,2.2376 -10.4513,5.5222 0.6782,1.7674 1.84,1.995 6.7656,1.3257 3.2707,-0.4444 6.9312,-1.0799 8.1343,-1.4122 z m 63.9208,-12.9746 c 18.8896,-2.1372 30.0203,-3.905 32.3292,-5.1344 3.2636,-1.7376 2.6863,-5.0832 -2.385,-13.8222 -6.6465,-11.4534 -10.5421,-16.2944 -25.4522,-31.6295 -14.0226,-14.4224 -28.0016,-30.7528 -40.6003,-47.4298 -4.125,-5.4602 -13.0776,-14.741 -19.8947,-20.624 -6.8171,-5.8828 -18.6296,-16.9176 -26.25,-24.5214 -7.6204,-7.6041 -17.2303,-16.1177 -21.3553,-18.9194 -16.1921,-10.9978 -25.6506,-23.2591 -32.5032,-42.1349 -1.2239,-3.3713 -4.2367,-8.356 -6.6952,-11.0773 -2.4585,-2.7212 -5.2028,-6.9942 -6.0985,-9.4955 -2.714,-7.5791 -5.5403,-24.0657 -5.2714,-30.7496 0.3482,-8.6535 0.1984,-9.4231 -1.8348,-9.4231 -0.9779,0 -2.4185,1.9406 -3.2013,4.3125 -0.7828,2.3719 -3.303,5.963 -5.6004,7.9801 -2.2975,2.0171 -4.7938,4.8198 -5.5474,6.2279 -0.7536,1.4081 -2.4487,2.9025 -3.767,3.3209 -4.6493,1.4756 -4.9681,6.4916 -1.3928,21.9086 1.8336,7.9063 4.8203,18.875 6.6372,24.375 3.473,10.5133 12.5944,47.313 14.0842,56.8221 0.4802,3.0647 2.1668,9.0094 3.7481,13.2105 1.5814,4.2013 3.5288,11.2563 4.3277,15.678 1.3461,7.4498 7.2574,27.6927 10.1914,34.8998 0.6964,1.7106 2.0696,8.0775 3.0515,14.1486 0.9819,6.071 2.6761,13.1089 3.7649,15.6396 1.0888,2.5308 2.4694,8.7716 3.0681,13.8687 1.2963,11.0371 3.9574,14.5288 15.5389,20.3887 4.125,2.0872 9.3477,5.4091 11.606,7.382 5.5392,4.839 10.047,4.641 17.9394,-0.788 5.826,-4.0076 7.1094,-4.3727 15.2824,-4.3488 9.2751,0.027 23.883,3.6524 34.5472,8.5733 6.4399,2.9716 14.4614,3.3159 31.7333,1.3616 z"
     id="path3346"
     style="fill:#000000" />
</svg>
