<?xml version="1.0" encoding="UTF-8"?>
<svg width="1200pt" height="1200pt" version="1.1" viewBox="0 0 1200 1200" xmlns="http://www.w3.org/2000/svg">
 <path fill="#4A9ECC" d="m1032.9 370.44c-11.391 79.383 0 159.85-31.406 239.13 14.418-14.113 14.316-14.164 18.523-24.836 26.836-67.891 36.586-137.47 20.527-209.57-0.050781-1.2305-3.3867-2.2578-7.6445-4.7227z"/>
 <path fill="#4A9ECC" d="m694.39 1107.7c-8.8789 11.547-23.398 10.262-35.098 14.984-14.059-49.469-27.812-99.039-42.438-148.35-2.5664-8.6211-2.668-18.73-10.262-25.297h-24.48c14.117 59.34 32.996 117.45 56.445 173.75-5.1328 11.086-19.039 7.2344-25.656 15.395-27.453-1.7969-52.75 12.367-80.309 10.262-11.391-0.76953-24.324 1.2305-24.426 15.703 0 15.703 14.316 15.395 24.527 14.164 36.895-5.1328 73.996-5.1328 111.05-6.4648 14.266 0.56641 27.25-8.5195 41.82-5.4375 34.227 4.4648 69.121 4.668 102.22 16.523 5.8516 2.1055 14.367 4.3633 17.395-4.6172 2.7188-7.8516-5.1328-9.4414-9.8516-12.469-11.086-7.1836-25.145-8.7227-34.688-18.781 7.2344 0 14.727 1.4375 20.527-4.3633 19.191-16.523 44.234-5.4922 65.172-13.855 4.4648-1.7969 11.391-1.9492 10.262-8.5195v-0.003906c-1.6719-3.793-5.0742-6.5469-9.1367-7.3906-40.488-6.4766-81.598-8.1992-122.49-5.1289l-14.625-1.1797v-0.003906c-0.50391-15.805-4.5742-31.297-11.902-45.309l-21.094 5.9531c4.3125 14.008 8.2109 28.223 17.039 40.434z"/>
 <path fill="#4A9ECC" d="m1190.5 103.71c-11.379-5.0078-23.523-8.0469-35.922-8.9805-16.215-4.5156-34.227-25.246-46.695 5.1328-4.8711 2.8164-7.0273 8.7109-5.1328 14.008 0.25781 1.1289 6.9805 0.82031 10.727 1.1797 8.5703 2.3086 17.086-9.4414 29.66 3.6445-34.637 9.8516-67.734 15.395-99.703 26.941 18.883-20.988 57.984-23.758 52.496-65.223-23.457 1.0273-41.98-9.2344-55.68-29.762-8.4062-12.047-20.895-20.637-35.152-24.172-78.359-20.984-152.15-18.164-213.21 44.699-19.652 15.395-29.508 36.691-37.82 59.168l0.003907-0.003906c-15.805 21.094-26.664 45.469-31.766 71.328-2.4648 14.473-10.262 26.531-16.422 39.562-27.504 58.91-76.562 100.89-121.31 143.68-97.5 93.855-191.97 190.58-287.36 286.49-34.688 34.945-69.273 70.043-98.32 110.02-52.648 42.18-104.73 85.129-153.99 131.31-11.547 4.207-17.754 14.934-26.734 22.219-8.1602 6.6719-23.504 15.395-16.316 24.426 8.8789 10.98 18.988-4.7227 28.273-9.8008 22.375-6.7734 41.051-25.656 66.711-21.09 10.262 17.242 19.961 0.51172 29.969-0.35938h-0.003907c12.402-1.1328 24.535-4.2852 35.918-9.3398l5.1328-1.1797c7.0781 0.83203 14.23-0.78125 20.27-4.5664l10.828-1.8984c15.395-3.3867 31.25-5.7969 45.312-13.754 35.922-10.52 73.688-13.344 107.35-31.148 31.148 0.61719 58.293-14.676 87.234-22.066 16.164-4.1055 31.766-11.441 53.266-9.6484-27.043 21.191-57.422 25.914-82.105 37.973 63.887 24.016 129.72 27.301 197.3 22.219v0.003906c-6.5938 10.125-14.25 19.52-22.836 28.02-7.6953 8.1094-12.316 16.473-3.0273 26.477h24.477c-1.2305-13.648 10.262-17.242 18.012-27.195 7.6953 46.543 25.965 85.594 44.746 124.44-1.6406 5.9531 2.7188 9.2383 5.8516 13.086 0.82031 2.668 1.5898 5.1328 2.4102 8.0039l21.348-5.4375c0.84766-4.0234-0.78906-8.1641-4.1562-10.52l-2.7188-10.727c3.4883-16.113-20.27-17.551-17.805-32.84 2.668-16.574-6.6211-30.789-10.727-45.312-10.98-39 3.1289-70.711 42.488-80.977 35.355-9.1836 70.816-18.832 101.71-38.59v0.003906c78.414-50.102 142.6-119.55 186.38-201.67 3.7461-6.9258 10.93-13.754 5.1328-25.656-26.477 41.41-61.219 73.02-99.449 101.04-6.1055 4.4648-11.957 14.113-20.27 2.5156 17.141-11.801 22.68-30.328 29.25-48.492-19.449 12.469-30.277 32.277-45.156 48.441l-15.395 15.703c-17.445 6.9258-35.152 13.344-45.773 30.48-11.34 0-18.422 13.445-30.789 9.6992 9.2891-14.367 25.656-23.145 31.918-39.871l39.613-41.359v-0.003906c27.27-21.766 46.09-52.363 53.215-86.52-27.863 19.961-42.645 50.852-65.016 75.176-32.07 23.555-57.164 57.984-94.676 66.711l61.117-69.379h-0.003907c8.8477-4.918 16-12.395 20.527-21.449l4.5156-5.1328c40.078-38.793 67.375-86.926 97.5-132.96v0.003906c5.0625-3.9609 8.5391-9.6055 9.8008-15.91 21.961-39.309 45.875-77.691 56.445-122.34 23.195-22.938 27.863-43.926 12.367-67.172-12.418-18.629-27.301-35.562-48.594-45.004-52.648-25.656-107.3-40.387-166.62-35.922-32.738 2.3086-49.57-21.191-40.742-52.805 5.1328-18.27 15.906-33.508 25.043-49.621l24.734-35.562c31.457-5.1328 61.887 8.8242 93.395 5.1328l-0.003906 0.007813c3.4766-0.35156 6.9414 0.79688 9.5156 3.1602 2.5781 2.3594 4.0273 5.7109 3.9805 9.2031 0.74609 3.3672 0.30469 6.8867-1.2461 9.9648-1.5547 3.0742-4.125 5.5195-7.2734 6.918-6.2109 2.668-13.035 3.7461-19.449 5.8516-32.789 10.852-62.34 29.746-85.953 54.957 14.418 2.1055 22.578-3.1797 30.789-6.7734 25.895-10.711 53.574-16.438 81.594-16.883 38.074-1.3867 70.918 8.4688 84.977 49.672 18.629-10.262 27.094-31.918 47.824-38.23-3.5938 38.484-8.4141 76.973 8.4141 114.12l0.003906 0.003906c2.5156-9.3242 3.5039-18.996 2.9219-28.637-1.3672-23.816 1.8945-47.672 9.5977-70.25 6.5156-17.141 19.348-26.426 34.996-26.941 41.566-1.3867 72.148-24.992 104.17-46.492 10.367-5.5898 14.832-10.875 0.10547-17.188zm-434.33 468.2c35.457-0.56641 63.426-22.32 86.824-47.262h-0.003906c29.43-30.664 53.691-65.895 71.844-104.32 2.9141-9.0078 9.7695-16.203 18.625-19.551-16.371 37-20.117 71.84-35.664 103.61-18.219 37.152-47.824 65.375-73.637 96.523-67.992 82.105-154.2 141.12-245.29 193.97-1.0781 0.66797-3.1797-0.35938-9.2383-1.2305 14.164-19.242 35.203-26.223 50.031-40.641 4.6172-4.5156 14.676-6.6719 12.109-14.113-1.5391-4.4648-10.57-6.5156-16.371-9.3398h0.007813c-12.375-5.9258-26.371-7.5508-39.77-4.6172-27.762 5.5938-47.262-10.262-69.789-21.91 2.5156-2.9258 3.1797-3.9531 3.3867-3.8984 39.41 14.113 81.59 4.0547 121.36 14.113 26.734 6.7227 55.473-3.0781 88.52-33.918-37.562-0.51172-70.816-11.648-107.76-4.1562-33.199 6.6719-65.785-10.262-95.906-25.656 2.9766-7.6445 7.1328-7.9023 9.8008-7.0312 35.664 11.906 68.762 5.5938 102.22-10.262 18.473-8.7227 38.539 1.5391 57.32 6.0039 55.984 13.395 99.449-6.4141 134.91-48.801 1.2812-1.5391 1.1797-4.2578 2.875-11.086-28.07 21.449-53.828 23.297-82.668 8.8242-12.828-6.4648-29.609-1.4375-44.848 2-37.715 8.5195-70.559-4.4648-102.32-26.273 13.086-5.4922 21.551 1.7461 30.328 6.2109l-0.007813-0.003907c24.113 12.715 52.215 15.602 78.41 8.0586 17.941-3.9219 36.289-5.6797 54.648-5.2344zm206.29-419.81c-6.8711 0.60156-13.68-1.7031-18.773-6.3555-5.0898-4.6523-7.9961-11.227-8.0156-18.121-0.76562-6.918 1.5547-13.82 6.3398-18.871s11.551-7.7422 18.496-7.3516c14.934 0 24.426 9.75 27.195 24.426-1.4336 15.906-8.8242 26.066-25.297 26.273z"/>
 <path fill="#4A9ECC" d="m961.39 115.15c-8.2617 0.66797-15.035 5.1328-14.266 14.473 0.66797 8.1094 6.3633 11.391 14.316 11.086v-0.003907c3.4805 0.30078 6.918-0.95312 9.3867-3.4297 2.4648-2.4766 3.707-5.918 3.3906-9.4023-1.6953-6.7188-4.3633-13.492-12.828-12.723z"/>
</svg>
